HIERARCHY
ROOT root
{
	OFFSET	0	13.1	24.9
	CHANNELS 6  Xposition Yposition Zposition Xrotation Yrotation Zrotation
	JOINT spine_1
	{
		OFFSET	0	9.99999	0
		CHANNELS 3  Xrotation Yrotation Zrotation
		JOINT spine_2
		{
			OFFSET	0	112	-10
			CHANNELS 3  Xrotation Yrotation Zrotation
			JOINT spine_3
			{
				OFFSET	0	206.5	19.3
				CHANNELS 3  Xrotation Yrotation Zrotation
				JOINT spine_4
				{
					OFFSET	0	110.4	14.6
					CHANNELS 3  Xrotation Yrotation Zrotation
					JOINT neck_1
					{
						OFFSET	0	71.8	-50.3
						CHANNELS 3  Xrotation Yrotation Zrotation
						JOINT neck_2
						{
							OFFSET	0	86.2	-25.8
							CHANNELS 3  Xrotation Yrotation Zrotation
							JOINT head_ee
							{
								OFFSET	0	179.8	-8.7
								CHANNELS 3  Xrotation Yrotation Zrotation
								End Site
								{
									OFFSET	1	0	0
								}
							}
						}
					}
					JOINT left_clavicle
					{
						OFFSET	-43.2	22.4	-70.8
						CHANNELS 3  Xrotation Yrotation Zrotation
						JOINT left_shoulder
						{
							OFFSET	-93.9	-5.79999	48.7
							CHANNELS 3  Xrotation Yrotation Zrotation
							JOINT left_elbow
							{
								OFFSET	-291.4	-30.8	15.2
								CHANNELS 3  Xrotation Yrotation Zrotation
								JOINT left_lowarm_twist
								{
									OFFSET	-110.7	-3.89999	13.6
									CHANNELS 3  Xrotation Yrotation Zrotation
									JOINT left_hand
									{
										OFFSET	-110.7	-3.89999	13.6
										CHANNELS 3  Xrotation Yrotation Zrotation
										JOINT left_ee
										{
											OFFSET	-80.8	-5.10001	12.1
											CHANNELS 3  Xrotation Yrotation Zrotation
											End Site
											{
												OFFSET	1	0	0
											}
										}
									}
								}
							}
						}
					}
					JOINT right_clavicle
					{
						OFFSET	43.2	22.4	-70.8
						CHANNELS 3  Xrotation Yrotation Zrotation
						JOINT right_shoulder
						{
							OFFSET	93.9	-5.79999	48.7
							CHANNELS 3  Xrotation Yrotation Zrotation
							JOINT right_elbow
							{
								OFFSET	291.4	-30.8	15.2
								CHANNELS 3  Xrotation Yrotation Zrotation
								JOINT right_lowarm_twist
								{
									OFFSET	110.7	-3.89999	13.6
									CHANNELS 3  Xrotation Yrotation Zrotation
									JOINT right_hand
									{
										OFFSET	110.7	-3.89999	13.6
										CHANNELS 3  Xrotation Yrotation Zrotation
										JOINT right_ee
										{
											OFFSET	80.8	-5.10001	12.1
											CHANNELS 3  Xrotation Yrotation Zrotation
											End Site
											{
												OFFSET	1	0	0
											}
										}
									}
								}
							}
						}
					}
				}
			}
		}
	}
	JOINT left_hip
	{
		OFFSET	-82.8	-127.5	0.300001
		CHANNELS 3  Xrotation Yrotation Zrotation
		JOINT left_knee
		{
			OFFSET	-28.2	-396.7	2.2
			CHANNELS 3  Xrotation Yrotation Zrotation
			JOINT left_ankle
			{
				OFFSET	-11.7	-411.3	35.4
				CHANNELS 3  Xrotation Yrotation Zrotation
				JOINT left_toes
				{
					OFFSET	0	-60	-88.6
					CHANNELS 3  Xrotation Yrotation Zrotation
					JOINT left_foot_ee
					{
						OFFSET	-22.5	-16.5	-42.2
						CHANNELS 3  Xrotation Yrotation Zrotation
						End Site
						{
							OFFSET	1	0	0
						}
					}
				}
			}
		}
	}
	JOINT right_hip
	{
		OFFSET	82.8	-127.5	0.300001
		CHANNELS 3  Xrotation Yrotation Zrotation
		JOINT right_knee
		{
			OFFSET	28.2	-396.7	2.2
			CHANNELS 3  Xrotation Yrotation Zrotation
			JOINT right_ankle
			{
				OFFSET	11.7	-411.3	35.4
				CHANNELS 3  Xrotation Yrotation Zrotation
				JOINT right_toes
				{
					OFFSET	0	-60	-88.6
					CHANNELS 3  Xrotation Yrotation Zrotation
					JOINT right_foot_ee
					{
						OFFSET	22.5	-16.5	-42.2
						CHANNELS 3  Xrotation Yrotation Zrotation
						End Site
						{
							OFFSET	1	0	0
						}
					}
				}
			}
		}
	}
}
MOTION
Frames: 9
Frame Time: 0.02
3288.22 696.579 -1428.37 -15.7542 65.8271 16.6494 1.65666 0.337426 0.847523 1.65702 0.282815 0.867275 1.66138 0.120505 0.904225 1.66034 0.261793 0.87385 -13.167 16.2043 -3.92204 -13.9703 33.2608 1.49574 -0.0 0.0 -0.0 2.51234 20.7826 6.05752 -36.5989 -26.1265 69.8805 0.390762 -10.9556 0.0374734 -37.8976 -2.7304 3.90561 -0.577962 5.5029 -1.48727 -0.0 0.0 -0.0 12.7444 24.0502 -25.3005 6.83099 32.5394 -64.4026 1.53646 37.2728 -0.518189 82.5407 4.13455 8.74645 2.66872 -8.50622 -21.3113 0.0 0.0 0.0 31.8236 5.28369 -15.7406 3.68157 -0.169021 -0.5395 -3.53122 -16.3923 0.574328 -19.5344 0.0 0.0 -0.0 0.0 -0.0 -5.53192 -11.2616 6.03433 -14.8538 -0.321431 -2.25045 36.4891 33.1009 5.78824 1.71913 -0.0 -0.0 0.0 0.0 0.0 
3269.42 695.835 -1423.59 -16.4885 66.3501 17.8538 1.5999 0.227947 0.802015 1.60024 0.176453 0.814893 1.60281 0.024569 0.833415 1.60187 0.155879 0.819077 -13.1719 16.2211 -4.0269 -13.9789 33.3569 1.4047 -0.0 0.0 -0.0 2.6626 19.9765 6.24612 -35.5872 -26.3885 69.7275 0.39421 -11.0499 0.0381315 -37.7522 -2.71534 3.89459 -0.584416 5.56073 -1.50468 -0.0 0.0 -0.0 12.6303 24.0381 -25.0382 6.61526 32.5233 -64.6396 1.52906 37.1396 -0.513714 82.5424 4.13475 8.74654 2.68014 -8.51634 -21.3946 0.0 0.0 0.0 31.8304 5.26926 -15.6849 2.91555 -0.130996 -0.42814 -3.58102 -16.3368 0.58223 -19.5976 0.0 0.0 -0.0 0.0 -0.0 -4.89831 -11.1698 6.92779 -14.8961 -0.321508 -2.25695 36.5228 33.0259 5.78599 1.74129 -0.0 -0.0 0.0 0.0 0.0 
3252.79 695.825 -1418.98 -17.3258 66.5412 19.0805 1.584 0.0777206 0.79466 1.58435 0.0269985 0.797994 1.58475 -0.119544 0.789452 1.58388 0.00663161 0.798423 -13.2051 16.2916 -4.05079 -14.0255 33.5064 1.42016 -0.0 0.0 -0.0 2.73338 18.8264 6.30808 -34.4304 -26.7013 69.5133 0.398042 -11.1546 0.0388693 -37.4969 -2.68898 3.87515 -0.590284 5.64959 -1.50488 -0.0 0.0 -0.0 12.4064 23.9853 -24.5276 6.36016 32.5125 -65.0285 1.50488 36.7011 -0.499191 82.5322 4.13355 8.74602 2.69466 -8.50096 -21.4909 0.0 0.0 0.0 31.9017 5.37981 -15.5627 1.4325 -0.0616343 -0.211174 -3.79394 -16.3066 0.616994 -19.7304 0.0 0.0 -0.0 0.0 -0.0 -4.85442 -11.22 7.29234 -15.1776 -0.321898 -2.30013 36.5337 32.9279 5.77946 1.7656 -0.0 -0.0 0.0 0.0 0.0 
3234.87 697.474 -1413.34 -17.192 66.1256 19.3526 1.55472 -0.0738262 0.832327 1.5551 -0.126638 0.825943 1.55326 -0.276149 0.788648 1.55242 -0.148135 0.82236 -12.9744 16.5129 -3.65163 -13.7812 33.6767 1.79965 -0.0 0.0 -0.0 2.8105 17.7914 6.38613 -33.5911 -26.7445 69.1833 0.398811 -11.1756 0.0390183 -37.248 -2.66335 3.85608 -0.604349 5.80893 -1.52835 -0.0 0.0 -0.0 11.924 24.0271 -23.4168 5.51785 32.455 -65.0314 1.5608 37.7076 -0.533006 82.4235 4.12076 8.74043 2.67964 -8.87684 -21.5152 0.0 0.0 0.0 31.6566 5.80558 -15.3816 0.127971 -0.00529075 -0.0189255 -3.14306 -16.3331 0.510495 -19.4129 0.0 0.0 -0.0 0.0 -0.0 -4.47651 -11.3305 7.69367 -14.9319 -0.321569 -2.26244 35.7433 32.5814 5.66513 1.12575 -0.0 -0.0 0.0 0.0 0.0 
3222.74 700.876 -1410.56 -17.1827 66.5907 19.5028 1.54716 -0.175339 0.853444 1.54754 -0.229288 0.840559 1.54413 -0.379872 0.784101 1.54336 -0.251275 0.83425 -13.2379 16.3939 -4.10496 -14.0758 33.7345 1.41909 -0.0 0.0 -0.0 2.8366 17.159 6.40224 -32.9545 -26.9371 68.701 0.401736 -11.2555 0.0395872 -37.0443 -2.64245 3.8404 -0.606916 5.83812 -1.53258 -0.0 0.0 -0.0 12.0782 23.9457 -23.7779 5.36606 32.2509 -64.7406 1.42924 35.2965 -0.454726 82.5786 4.13901 8.74839 2.67462 -8.52809 -21.3601 0.0 0.0 0.0 31.5388 5.58464 -15.3588 -0.949629 0.0379355 0.140794 -3.86123 -16.2967 0.62798 -19.7463 0.0 0.0 -0.0 0.0 -0.0 -4.7525 -11.2314 7.52691 -15.1541 -0.321873 -2.29652 36.5382 32.742 5.76537 1.76291 -0.0 -0.0 0.0 0.0 0.0 
3205.53 699.708 -1404.38 -17.7852 66.921 20.2292 1.53105 -0.227783 0.884923 1.53144 -0.283629 0.868637 1.52708 -0.438692 0.801581 1.52632 -0.306597 0.860799 -10.6418 15.7853 -3.80005 -11.052 32.3047 0.623719 -0.0 0.0 -0.0 2.63025 17.7615 6.1078 -32.5083 -28.8456 66.8652 0.490314 -13.6522 0.0586934 -37.5589 -2.69538 3.87989 -0.708622 6.3134 -1.99204 -0.0 0.0 -0.0 11.8362 23.9002 -23.2286 4.97917 32.3964 -64.6831 1.42129 35.1459 -0.450141 82.586 4.13988 8.74877 2.71057 -10.2951 -22.2105 0.0 0.0 0.0 30.6126 6.14255 -14.3406 -0.92425 0.0369519 0.137023 -0.773592 -16.8796 0.125473 -20.4943 0.0 0.0 -0.0 0.0 -0.0 -4.91549 -11.5468 8.12499 -15.2852 -0.321991 -2.31664 37.0397 31.0867 5.69485 2.72641 -0.0 -0.0 0.0 0.0 0.0 
3183.9 701.562 -1401.38 -16.5365 66.254 18.5799 1.4717 -0.107709 1.01688 1.47226 -0.172194 1.00796 1.46921 -0.355775 0.958684 1.46798 -0.199912 1.00284 -10.2102 16.2816 -1.81987 -10.5943 31.9137 2.54705 -0.0 0.0 -0.0 1.80831 18.1659 4.87242 -31.7719 -30.3543 65.716 0.623855 -17.1733 0.0942017 -38.4414 -2.78695 3.94649 -0.806696 7.07084 -2.302 -0.0 0.0 -0.0 11.5685 23.8438 -22.6234 3.97279 32.5373 -65.1439 1.42593 35.2339 -0.452815 82.5181 4.13188 8.74529 2.63999 -12.549 -22.454 0.0 0.0 0.0 29.0934 6.76587 -13.7583 -1.91088 0.0739494 0.283916 2.63717 -16.6825 -0.422933 -19.9706 0.0 0.0 -0.0 0.0 -0.0 -4.70516 -8.99767 8.93729 -17.1143 -0.318831 -2.59724 35.5996 25.8606 5.21181 2.64963 -0.0 -0.0 0.0 0.0 0.0 
3166.38 703.465 -1396.44 -15.4141 65.8685 17.4576 1.41283 -0.0172839 0.929124 1.41331 -0.0763689 0.926141 1.41209 -0.24734 0.895766 1.41099 -0.102772 0.923584 -7.80644 16.8724 -1.61084 -7.89696 32.6421 2.14243 -0.0 0.0 -0.0 1.52052 17.9149 4.41657 -28.2014 -29.9846 65.28 0.639388 -17.5749 0.09884 -39.0735 -2.85317 3.99333 -1.49722 10.6723 -5.1451 -0.0 0.0 -0.0 11.3213 23.8711 -22.0585 2.81524 32.4187 -65.5809 1.37867 34.3293 -0.425857 81.5894 4.02302 8.69681 2.30636 -14.3636 -20.7532 0.0 0.0 0.0 27.2034 7.64629 -12.798 -1.57558 0.0616603 0.233927 6.93851 -16.2269 -1.09298 -19.4297 0.0 0.0 -0.0 0.0 -0.0 -5.10333 -6.94814 9.76297 -18.6801 -0.309011 -2.83728 35.4919 23.6763 5.08703 3.5036 -0.0 -0.0 0.0 0.0 0.0 
3148.25 706.814 -1391.73 -14.3307 65.5488 15.9145 1.21004 0.0932364 1.18845 1.21082 0.0174291 1.19197 1.2113 -0.208747 1.17368 1.20938 -0.0207803 1.19192 -6.49648 17.4361 -0.193271 -6.4371 32.518 3.26972 -0.0 0.0 -0.0 1.16173 17.4753 3.83273 -25.8525 -30.8271 64.6696 0.665209 -18.2384 0.106779 -39.6501 -2.91403 4.03542 -1.46423 11.9378 -4.35035 -0.0 0.0 -0.0 10.8695 23.7122 -21.0501 2.03171 32.4252 -65.8483 1.39271 34.6002 -0.433804 81.774 4.04459 8.70659 2.3075 -16.2004 -21.3263 0.0 0.0 0.0 24.68 8.3311 -11.8875 1.75466 -0.0762229 -0.258453 6.19111 -16.4553 -0.979608 -20.4282 0.0 0.0 -0.0 0.0 -0.0 -4.76769 -4.10516 10.4029 -22.5008 -0.257557 -3.42117 34.5311 17.2766 4.72228 3.08934 -0.0 -0.0 0.0 0.0 0.0 
